<?xml version="1.0" encoding="UTF-8"?>
<svg width="171px" height="135px" viewBox="0 0 171 135" version="1.1" xmlns="http://www.w3.org/2000/svg" xmlns:xlink="http://www.w3.org/1999/xlink">
    <g id="Page-1" stroke="none" stroke-width="1" fill="none" fill-rule="evenodd">
        <g id="logo47" transform="translate(8.000000, 7.000000)">
            <g id="Layer0_0_FILL-link" transform="translate(26.000000, 48.000000)" fill="#4A90E2">
                <g id="Layer0_0_FILL">
                    <path d="M12.4,3 C11.0333333,1.63333333 9.38333333,0.95 7.45,0.95 C5.51666667,0.95 3.86666667,1.63333333 2.5,3 C1.13333333,4.36666667 0.45,6.01666667 0.45,7.95 C0.45,9.88333333 1.13333333,11.5333333 2.5,12.9 C3.86666667,14.2666667 5.51666667,14.95 7.45,14.95 C9.38333333,14.95 11.0333333,14.2666667 12.4,12.9 C13.7666667,11.5333333 14.45,9.88333333 14.45,7.95 C14.45,6.01666667 13.7666667,4.36666667 12.4,3 Z" id="Path"></path>
                </g>
            </g>
            <g id="Layer0_0_1_STROKES-link" stroke="#4A90E2" stroke-linecap="square" stroke-width="15">
                <path d="M0.45,119.95 L0.45,50.95 C0.45,43.7833333 1.78333333,37.15 4.45,31.05 C6.58333333,24.85 10.1666667,19.2333333 15.2,14.2 C24.0333333,5.36666667 34.7,0.95 47.2,0.95 C47.7333333,0.95 48.2666667,0.966666667 48.8,1 C49.3333333,0.966666667 49.8833333,0.95 50.45,0.95 L105.45,0.95 C119.25,0.95 131.033333,5.83333333 140.8,15.6 C150.566667,25.3666667 155.45,37.15 155.45,50.95 L155.45,119.95 M48.8,1 C60.6,1.33333333 70.7166667,5.73333333 79.15,14.2 C88.0166667,23.0333333 92.45,33.7 92.45,46.2 C92.45,58.7 88.0166667,69.35 79.15,78.15 C70.35,87.0166667 59.7,91.45 47.2,91.45 C47.1,91.45 46.8333333,91.45 46.4,91.45 M4.45,31.05 C6.85,25.45 10.4,20.3 15.1,15.6 C24.4666667,6.23333333 35.7,1.36666667 48.8,1 M113.4,119.95 L46.4,119.95" id="Layer0_0_1_STROKES"></path>
            </g>
        </g>
    </g>
</svg>
